<svg xmlns="http://www.w3.org/2000/svg" width="960" height="540" viewBox="0 0 960 540"><rect width="100%" height="100%" fill="#ffffff" /><text x="480.00" y="40.00" text-anchor="middle" font-size="20" fill="#0f172a">CI Pass Rate & Flaky Trend</text><line x1="90" y1="430.00" x2="890" y2="430.00" stroke="#94a3b8" stroke-width="0.5" stroke-dasharray="4 4" /><text x="78" y="434.00" fill="#0f172a" font-size="12" text-anchor="end">0%</text><line x1="90" y1="337.50" x2="890" y2="337.50" stroke="#94a3b8" stroke-width="0.5" stroke-dasharray="4 4" /><text x="78" y="341.50" fill="#0f172a" font-size="12" text-anchor="end">25%</text><line x1="90" y1="245.00" x2="890" y2="245.00" stroke="#94a3b8" stroke-width="0.5" stroke-dasharray="4 4" /><text x="78" y="249.00" fill="#0f172a" font-size="12" text-anchor="end">50%</text><line x1="90" y1="152.50" x2="890" y2="152.50" stroke="#94a3b8" stroke-width="0.5" stroke-dasharray="4 4" /><text x="78" y="156.50" fill="#0f172a" font-size="12" text-anchor="end">75%</text><line x1="90" y1="60.00" x2="890" y2="60.00" stroke="#94a3b8" stroke-width="0.5" stroke-dasharray="4 4" /><text x="78" y="64.00" fill="#0f172a" font-size="12" text-anchor="end">100%</text><text x="902" y="434.00" fill="#0f172a" font-size="12" text-anchor="start">0</text><text x="902" y="249.00" fill="#0f172a" font-size="12" text-anchor="start">1</text><text x="902" y="64.00" fill="#0f172a" font-size="12" text-anchor="start">2</text><line x1="90" y1="430" x2="890" y2="430" stroke="#0f172a" stroke-width="1" /><line x1="90" y1="60" x2="90" y2="430" stroke="#0f172a" stroke-width="1" /><line x1="890" y1="60" x2="890" y2="430" stroke="#0f172a" stroke-width="1" /><polyline points="90.00,60.00 250.00,245.00 410.00,430.00 570.00,430.00 730.00,60.00 890.00,245.00" fill="none" stroke="#2563eb" stroke-width="3" stroke-linejoin="round" stroke-linecap="round" /><circle cx="90.00" cy="60.00" r="5" fill="#2563eb" stroke="#ffffff" stroke-width="1" /><circle cx="250.00" cy="245.00" r="5" fill="#2563eb" stroke="#ffffff" stroke-width="1" /><circle cx="410.00" cy="430.00" r="5" fill="#2563eb" stroke="#ffffff" stroke-width="1" /><circle cx="570.00" cy="430.00" r="5" fill="#2563eb" stroke="#ffffff" stroke-width="1" /><circle cx="730.00" cy="60.00" r="5" fill="#2563eb" stroke="#ffffff" stroke-width="1" /><circle cx="890.00" cy="245.00" r="5" fill="#2563eb" stroke="#ffffff" stroke-width="1" /><polyline points="90.00,430.00 250.00,430.00 410.00,245.00 570.00,60.00 730.00,60.00 890.00,60.00" fill="none" stroke="#f97316" stroke-width="2" stroke-dasharray="6 4" stroke-linejoin="round" stroke-linecap="round" /><circle cx="90.00" cy="430.00" r="4" fill="#ffffff" stroke="#f97316" stroke-width="2" /><circle cx="250.00" cy="430.00" r="4" fill="#ffffff" stroke="#f97316" stroke-width="2" /><circle cx="410.00" cy="245.00" r="4" fill="#ffffff" stroke="#f97316" stroke-width="2" /><circle cx="570.00" cy="60.00" r="4" fill="#ffffff" stroke="#f97316" stroke-width="2" /><circle cx="730.00" cy="60.00" r="4" fill="#ffffff" stroke="#f97316" stroke-width="2" /><circle cx="890.00" cy="60.00" r="4" fill="#ffffff" stroke="#f97316" stroke-width="2" /><text x="90.00" y="455.00" fill="#0f172a" font-size="12" text-anchor="middle">gh_20250910_02</text><text x="90.00" y="472.00" fill="#0f172a" font-size="11" text-anchor="middle">2025-09-10</text><text x="250.00" y="455.00" fill="#0f172a" font-size="12" text-anchor="middle">gh_20250912_01</text><text x="250.00" y="472.00" fill="#0f172a" font-size="11" text-anchor="middle">2025-09-12</text><text x="410.00" y="455.00" fill="#0f172a" font-size="12" text-anchor="middle">gh_20250917_05</text><text x="410.00" y="472.00" fill="#0f172a" font-size="11" text-anchor="middle">2025-09-17</text><text x="570.00" y="455.00" fill="#0f172a" font-size="12" text-anchor="middle">gh_20250918_02</text><text x="570.00" y="472.00" fill="#0f172a" font-size="11" text-anchor="middle">2025-09-18</text><text x="730.00" y="455.00" fill="#0f172a" font-size="12" text-anchor="middle">gh_20250919_03</text><text x="730.00" y="472.00" fill="#0f172a" font-size="11" text-anchor="middle">2025-09-19</text><text x="890.00" y="455.00" fill="#0f172a" font-size="12" text-anchor="middle">gh_20250921_01</text><text x="890.00" y="472.00" fill="#0f172a" font-size="11" text-anchor="middle">2025-09-21</text><text x="40" y="245.00" transform="rotate(-90 40,245.00)" fill="#0f172a" font-size="14" text-anchor="middle">Pass Rate (%)</text><text x="940" y="245.00" transform="rotate(90 940,245.00)" fill="#0f172a" font-size="14" text-anchor="middle">Flaky Count</text><rect x="90" y="20" width="260" height="28" rx="6" ry="6" fill="#f1f5f9" /><line x1="102" y1="34" x2="142" y2="34" stroke="#2563eb" stroke-width="2" /><text x="150" y="38" fill="#0f172a" font-size="13">Pass Rate (%)</text><line x1="240" y1="34" x2="280" y2="34" stroke="#f97316" stroke-width="2" /><text x="288" y="38" fill="#0f172a" font-size="13">Flaky Count</text></svg>